<svg width="22" height="16" viewBox="0 0 22 16" fill="none" xmlns="http://www.w3.org/2000/svg">
<path d="M0 2.66667C0 1.95942 0.289731 1.28115 0.805456 0.781048C1.32118 0.280951 2.02065 0 2.75 0H19.25C19.9793 0 20.6788 0.280951 21.1945 0.781048C21.7103 1.28115 22 1.95942 22 2.66667V9.33333H0V2.66667ZM15.8125 4C15.6302 4 15.4553 4.07024 15.3264 4.19526C15.1974 4.32029 15.125 4.48986 15.125 4.66667V6C15.125 6.17681 15.1974 6.34638 15.3264 6.4714C15.4553 6.59643 15.6302 6.66667 15.8125 6.66667H18.5625C18.7448 6.66667 18.9197 6.59643 19.0486 6.4714C19.1776 6.34638 19.25 6.17681 19.25 6V4.66667C19.25 4.48986 19.1776 4.32029 19.0486 4.19526C18.9197 4.07024 18.7448 4 18.5625 4H15.8125ZM0 12V13.3333C0 14.0406 0.289731 14.7189 0.805456 15.219C1.32118 15.719 2.02065 16 2.75 16H19.25C19.9793 16 20.6788 15.719 21.1945 15.219C21.7103 14.7189 22 14.0406 22 13.3333V12H0Z" fill="#ABB2BF"/>
</svg>
